  0
SECTION
  2
HEADER
  9
$ANGBASE
  50
0.0
  9
$ANGDIR
  70
  1
  9
$MEASUREMENT
  70
0
  0
ENDSEC
  0
SECTION
  2
TABLES
  0
TABLE
  2
LTYPE
  70
4
  0
LTYPE
  5
40F
  2
CONTINUOUS
  70
0
  3
Solid line
  72
65
  73
0
  40
0.0
  0
LTYPE
  5
410
  2
DASHDOT
 70
0
  3
Dash Dot ____ _ ____ _
 72
65
 73
4
 40
2.0
 49
1.25
 49
-0.25
 49
0.25
 49
-0.25
  0
LTYPE
  5
411
  2
DASHED
 70
0
  3
Dashed __ __ __ __ __
 72
65
 73
2
 40
0.75
 49
0.5
 49
-0.25
  0
LTYPE
  5
43B
  2
DOTTED
 70
0
  3
Dotted .  .  .  .
 72
65
 73
2
 40
0.2
 49
0.0
 49
-0.2
  0
ENDTAB
  0
TABLE
  2
STYLE
  70
4
  0
STYLE
  2
KICAD
  70
0
  40
0
  41
1
  42
1
  50
0
  71
0
  3
isocp.shx
  0
STYLE
  2
KICADB
  70
0
  40
0
  41
1
  42
1
  50
0
  71
0
  3
isocp.shx
  0
STYLE
  2
KICADI
  70
0
  40
0
  41
1
  42
1
  50
15
  71
0
  3
isocp.shx
  0
STYLE
  2
KICADBI
  70
0
  40
0
  41
1
  42
1
  50
15
  71
0
  3
isocp.shx
  0
ENDTAB
  0
TABLE
  2
LAYER
  70
30
  0
LAYER
  2
BLACK
  70
0
  62
7
  6
CONTINUOUS
  0
LAYER
  2
GRAY1
  70
0
  62
251
  6
CONTINUOUS
  0
LAYER
  2
GRAY2
  70
0
  62
8
  6
CONTINUOUS
  0
LAYER
  2
GRAY3
  70
0
  62
9
  6
CONTINUOUS
  0
LAYER
  2
WHITE
  70
0
  62
7
  6
CONTINUOUS
  0
LAYER
  2
LYELLOW
  70
0
  62
51
  6
CONTINUOUS
  0
LAYER
  2
BLUE1
  70
0
  62
178
  6
CONTINUOUS
  0
LAYER
  2
GREEN1
  70
0
  62
98
  6
CONTINUOUS
  0
LAYER
  2
CYAN1
  70
0
  62
138
  6
CONTINUOUS
  0
LAYER
  2
RED1
  70
0
  62
18
  6
CONTINUOUS
  0
LAYER
  2
MAGENTA1
  70
0
  62
228
  6
CONTINUOUS
  0
LAYER
  2
BROWN1
  70
0
  62
58
  6
CONTINUOUS
  0
LAYER
  2
BLUE2
  70
0
  62
5
  6
CONTINUOUS
  0
LAYER
  2
GREEN2
  70
0
  62
3
  6
CONTINUOUS
  0
LAYER
  2
CYAN2
  70
0
  62
4
  6
CONTINUOUS
  0
LAYER
  2
RED2
  70
0
  62
1
  6
CONTINUOUS
  0
LAYER
  2
MAGENTA2
  70
0
  62
6
  6
CONTINUOUS
  0
LAYER
  2
BROWN2
  70
0
  62
54
  6
CONTINUOUS
  0
LAYER
  2
BLUE3
  70
0
  62
171
  6
CONTINUOUS
  0
LAYER
  2
GREEN3
  70
0
  62
91
  6
CONTINUOUS
  0
LAYER
  2
CYAN3
  70
0
  62
131
  6
CONTINUOUS
  0
LAYER
  2
RED3
  70
0
  62
11
  6
CONTINUOUS
  0
LAYER
  2
MAGENTA3
  70
0
  62
221
  6
CONTINUOUS
  0
LAYER
  2
YELLOW3
  70
0
  62
2
  6
CONTINUOUS
  0
LAYER
  2
BLUE4
  70
0
  62
5
  6
CONTINUOUS
  0
LAYER
  2
GREEN4
  70
0
  62
3
  6
CONTINUOUS
  0
LAYER
  2
CYAN4
  70
0
  62
4
  6
CONTINUOUS
  0
LAYER
  2
RED4
  70
0
  62
1
  6
CONTINUOUS
  0
LAYER
  2
MAGENTA4
  70
0
  62
6
  6
CONTINUOUS
  0
LAYER
  2
YELLOW4
  70
0
  62
2
  6
CONTINUOUS
  0
ENDTAB
  0
ENDSEC
  0
SECTION
  2
ENTITIES
0
LINE
8
BLACK
6
CONTINUOUS
10
141
20
-50
11
138.7
21
-50
0
LINE
8
BLACK
6
CONTINUOUS
10
134.5
20
-52.2
11
132.1
21
-52.2
0
LINE
8
BLACK
6
CONTINUOUS
10
134.5
20
-54.6
11
134.5
21
-52.2
0
LINE
8
BLACK
6
CONTINUOUS
10
134.5
20
-64.2
11
134.5
21
-66.6
0
LINE
8
BLACK
6
CONTINUOUS
10
132.1
20
-64.2
11
134.5
21
-64.2
0
LINE
8
BLACK
6
CONTINUOUS
10
138.6
20
-62
11
141
21
-62
0
LINE
8
BLACK
6
CONTINUOUS
10
138.6
20
-59.7
11
138.6
21
-62
0
LINE
8
BLACK
6
CONTINUOUS
10
167.4
20
-103
11
167.4
21
-101.7
0
LINE
8
BLACK
6
CONTINUOUS
10
156.4
20
-103
11
156.4
21
-101.7
0
LINE
8
BLACK
6
CONTINUOUS
10
175.26
20
-83.185
11
175.26
21
-76.2
0
LINE
8
BLACK
6
CONTINUOUS
10
180.34
20
-83.185
11
175.26
21
-83.185
0
LINE
8
BLACK
6
CONTINUOUS
10
180.34
20
-76.2
11
180.34
21
-83.185
0
LINE
8
BLACK
6
CONTINUOUS
10
175.26
20
-76.2
11
180.34
21
-76.2
0
LINE
8
BLACK
6
CONTINUOUS
10
169.545
20
-65.405
11
154.305
21
-65.405
0
LINE
8
BLACK
6
CONTINUOUS
10
169.545
20
-64.135
11
169.545
21
-65.405
0
LINE
8
BLACK
6
CONTINUOUS
10
154.305
20
-64.135
11
169.545
21
-64.135
0
LINE
8
BLACK
6
CONTINUOUS
10
154.305
20
-65.405
11
154.305
21
-64.135
0
LINE
8
BLACK
6
CONTINUOUS
10
154.305
20
-48.895
11
154.305
21
-50.165
0
LINE
8
BLACK
6
CONTINUOUS
10
169.545
20
-48.895
11
154.305
21
-48.895
0
LINE
8
BLACK
6
CONTINUOUS
10
169.545
20
-50.165
11
169.545
21
-48.895
0
LINE
8
BLACK
6
CONTINUOUS
10
154.305
20
-50.165
11
169.545
21
-50.165
0
LINE
8
BLACK
6
CONTINUOUS
10
142.875
20
-66.04
11
142.875
21
-48.26
0
LINE
8
BLACK
6
CONTINUOUS
10
180.975
20
-66.04
11
142.875
21
-66.04
0
LINE
8
BLACK
6
CONTINUOUS
10
180.975
20
-48.26
11
180.975
21
-66.04
0
LINE
8
BLACK
6
CONTINUOUS
10
142.875
20
-48.26
11
180.975
21
-48.26
0
LINE
8
BLACK
6
CONTINUOUS
10
132.08
20
-66.675
11
132.08
21
-59.69
0
LINE
8
BLACK
6
CONTINUOUS
10
140.97
20
-66.675
11
132.08
21
-66.675
0
LINE
8
BLACK
6
CONTINUOUS
10
140.97
20
-59.69
11
140.97
21
-66.675
0
LINE
8
BLACK
6
CONTINUOUS
10
132.08
20
-59.69
11
140.97
21
-59.69
0
LINE
8
BLACK
6
CONTINUOUS
10
132.08
20
-47.625
11
140.97
21
-47.625
0
LINE
8
BLACK
6
CONTINUOUS
10
132.08
20
-54.61
11
132.08
21
-47.625
0
LINE
8
BLACK
6
CONTINUOUS
10
140.97
20
-54.61
11
132.08
21
-54.61
0
LINE
8
BLACK
6
CONTINUOUS
10
140.97
20
-47.625
11
140.97
21
-54.61
0
LINE
8
BLACK
6
CONTINUOUS
10
188.9
20
-51.9
11
188.9
21
-62.2
0
LINE
8
BLACK
6
CONTINUOUS
10
194.5
20
-51.9
11
188.9
21
-51.9
0
LINE
8
BLACK
6
CONTINUOUS
10
194.5
20
-62.2
11
194.5
21
-51.9
0
LINE
8
BLACK
6
CONTINUOUS
10
188.9
20
-62.2
11
194.5
21
-62.2
0
LINE
8
BLACK
6
CONTINUOUS
10
194.31
20
-71.755
11
194.31
21
-64.135
0
LINE
8
BLACK
6
CONTINUOUS
10
196.85
20
-71.755
11
194.31
21
-71.755
0
LINE
8
BLACK
6
CONTINUOUS
10
196.85
20
-64.135
11
196.85
21
-71.755
0
LINE
8
BLACK
6
CONTINUOUS
10
194.31
20
-64.135
11
196.85
21
-64.135
0
CIRCLE
8
BLACK
10
187
20
-85
40
1.21655
0
CIRCLE
8
BLACK
10
193.5
20
-85
40
0.905539
0
CIRCLE
8
BLACK
10
198
20
-49
40
2
0
CIRCLE
8
BLACK
10
147
20
-77
40
2
0
CIRCLE
8
BLACK
10
177
20
-94
40
2
0
LINE
8
BLACK
6
CONTINUOUS
10
126.365
20
-99.695
11
126.365
21
-89.535
0
LINE
8
BLACK
6
CONTINUOUS
10
128.905
20
-99.695
11
126.365
21
-99.695
0
LINE
8
BLACK
6
CONTINUOUS
10
128.905
20
-99.06
11
128.905
21
-99.695
0
LINE
8
BLACK
6
CONTINUOUS
10
128.905
20
-89.535
11
128.905
21
-99.06
0
LINE
8
BLACK
6
CONTINUOUS
10
126.365
20
-89.535
11
128.905
21
-89.535
0
LINE
8
BLACK
6
CONTINUOUS
10
126.365
20
-85.725
11
126.365
21
-75.565
0
LINE
8
BLACK
6
CONTINUOUS
10
128.905
20
-85.725
11
126.365
21
-85.725
0
LINE
8
BLACK
6
CONTINUOUS
10
128.905
20
-75.565
11
128.905
21
-85.725
0
LINE
8
BLACK
6
CONTINUOUS
10
126.365
20
-75.565
11
128.905
21
-75.565
0
LINE
8
BLACK
6
CONTINUOUS
10
126.365
20
-70.485
11
126.365
21
-65.405
0
LINE
8
BLACK
6
CONTINUOUS
10
128.905
20
-70.485
11
126.365
21
-70.485
0
LINE
8
BLACK
6
CONTINUOUS
10
128.905
20
-65.405
11
128.905
21
-70.485
0
LINE
8
BLACK
6
CONTINUOUS
10
126.365
20
-65.405
11
128.905
21
-65.405
0
LINE
8
BLACK
6
CONTINUOUS
10
126.365
20
-61.595
11
126.365
21
-56.515
0
LINE
8
BLACK
6
CONTINUOUS
10
128.905
20
-61.595
11
126.365
21
-61.595
0
LINE
8
BLACK
6
CONTINUOUS
10
128.905
20
-56.515
11
128.905
21
-61.595
0
LINE
8
BLACK
6
CONTINUOUS
10
126.365
20
-56.515
11
128.905
21
-56.515
0
LINE
8
BLACK
6
CONTINUOUS
10
128.905
20
-47.625
11
126.365
21
-47.625
0
LINE
8
BLACK
6
CONTINUOUS
10
128.905
20
-52.705
11
128.905
21
-47.625
0
LINE
8
BLACK
6
CONTINUOUS
10
126.365
20
-52.705
11
128.905
21
-52.705
0
LINE
8
BLACK
6
CONTINUOUS
10
126.365
20
-47.625
11
126.365
21
-52.705
0
LINE
8
BLACK
6
CONTINUOUS
10
122
20
-102
11
122
21
-45
0
LINE
8
BLACK
6
CONTINUOUS
10
153
20
-102
11
122
21
-102
0
LINE
8
BLACK
6
CONTINUOUS
10
154
20
-103
11
153
21
-102
0
LINE
8
BLACK
6
CONTINUOUS
10
170
20
-103
11
154
21
-103
0
LINE
8
BLACK
6
CONTINUOUS
10
171
20
-102
11
170
21
-103
0
LINE
8
BLACK
6
CONTINUOUS
10
202
20
-102
11
171
21
-102
0
LINE
8
BLACK
6
CONTINUOUS
10
202
20
-45
11
202
21
-102
0
LINE
8
BLACK
6
CONTINUOUS
10
122
20
-45
11
202
21
-45
0
LINE
8
BLACK
6
CONTINUOUS
10
171
20
-102
11
202
21
-102
0
LINE
8
BLACK
6
CONTINUOUS
10
170
20
-103
11
171
21
-102
0
LINE
8
BLACK
6
CONTINUOUS
10
153
20
-102
11
154
21
-103
0
LINE
8
BLACK
6
CONTINUOUS
10
122
20
-102
11
153
21
-102
0
LINE
8
BLACK
6
CONTINUOUS
10
122
20
-45
11
122
21
-102
0
LINE
8
BLACK
6
CONTINUOUS
10
202
20
-45
11
122
21
-45
0
LINE
8
BLACK
6
CONTINUOUS
10
202
20
-102
11
202
21
-45
0
LINE
8
BLACK
6
CONTINUOUS
10
154
20
-103
11
170
21
-103
  0
ENDSEC
  0
EOF
